<?xml version="1.0" encoding="UTF-8" standalone="no"?>
<svg
   xmlns:dc="http://purl.org/dc/elements/1.1/"
   xmlns:cc="http://creativecommons.org/ns#"
   xmlns:rdf="http://www.w3.org/1999/02/22-rdf-syntax-ns#"
   xmlns:svg="http://www.w3.org/2000/svg"
   xmlns="http://www.w3.org/2000/svg"
   xmlns:sodipodi="http://sodipodi.sourceforge.net/DTD/sodipodi-0.dtd"
   xmlns:inkscape="http://www.inkscape.org/namespaces/inkscape"
   width="79.779572mm"
   height="14.111111mm"
   viewBox="0 0 282.68352 49.999998"
   
   version="1.1"
   id="svg3357"
   inkscape:version="0.91 r13725"
   sodipodi:docname="nlb.svg">
  <metadata
     id="metadata3443">
    <rdf:RDF>
      <cc:Work
         rdf:about="">
        <dc:format>image/svg+xml</dc:format>
        <dc:type
           rdf:resource="http://purl.org/dc/dcmitype/StillImage" />
      </cc:Work>
    </rdf:RDF>
  </metadata>
  <defs
     id="defs3441" />
  <sodipodi:namedview
     pagecolor="#ffffff"
     bordercolor="#666666"
     borderopacity="1"
     objecttolerance="10"
     gridtolerance="10"
     guidetolerance="10"
     inkscape:pageopacity="0"
     inkscape:pageshadow="2"
     inkscape:window-width="1920"
     inkscape:window-height="1018"
     id="namedview3439"
     showgrid="false"
     inkscape:zoom="1.0188072"
     inkscape:cx="-26.01081"
     inkscape:cy="24.999999"
     inkscape:window-x="-8"
     inkscape:window-y="-8"
     inkscape:window-maximized="1"
     inkscape:current-layer="svg3357" />
  <style
     id="style3359">
    .corp-color {
      fill: #024bba;
    }
    .corp-book-leaf-1 {
      fill: #e21f26;
    }
    .corp-book-leaf-2 {
      fill: #f47920;
    }
    .corp-book-leaf-3 {
      fill: #189fda;
    }
  </style>
  <g
     class="corp-color"
     id="g3361"
     style="fill:#024bba">
    <g
       transform="matrix(0.50000002,0,0,0.50000002,-0.32638351,-2.7450661)"
       id="g3363">
      <path
         d="m 63.177763,25.099764 c -0.55014,-0.84666 -3.1597,-3.32218 -4.91959,-4.66688 -0.90116,-0.68856 -2.48703,-1.71788 -3.52416,-2.28739 l -1.8857,-1.03546 -0.004,-5.80995 c -0.002,-3.1954796 0.038,-5.8099596 0.0893,-5.8099596 0.0513,0 0.8655,0.45033 1.80927,1.00074 3.17164,1.84971 6.16941,4.2984696 7.96755,6.5083796 l 0.90506,1.11231 0,5.75378 c 0,3.16458 -0.0226,5.75378 -0.0502,5.75378 -0.0276,0 -0.20202,-0.23371 -0.38762,-0.51935 z"
         id="book-leaf-1"
         class="corp-book-leaf-1"
         inkscape:connector-curvature="0"
         style="fill:#e21f26" />
      <path
         d="m 52.411743,33.991074 c -1.70769,-2.17543 -5.02968,-4.86696 -8.11071,-6.57141 l -1.69956,-0.94021 0,-5.83155 0,-5.83155 0.60309,0.28626 c 2.5215,1.19684 6.65177,4.3764 8.71033,6.70535 l 1.46179,1.6538 0,5.74424 c 0,3.15934 -0.0543,5.73587 -0.12062,5.72563 -0.0663,-0.0102 -0.44628,-0.43349 -0.84432,-0.94056 z"
         id="book-leaf-2"
         class="corp-book-leaf-1"
         inkscape:connector-curvature="0"
         style="fill:#f57b21" />
      <path
         d="m 69.869893,47.763834 c -0.80474,-0.8762 -1.90695,-1.96365 -2.44934,-2.41655 -1.49444,-1.24786 -4.41474,-3.19601 -5.66625,-3.78 l -1.11499,-0.52028 -3.8e-4,-5.80996 c -3.2e-4,-4.09514 0.0516,-5.80996 0.17595,-5.80996 0.26157,0 2.60249,1.39906 4.1706,2.49256 1.87177,1.30526 3.69306,2.918 5.18175,4.58842 l 1.24639,1.39853 0,5.73325 c 0,3.15328 -0.0181,5.7296 -0.0402,5.72516 -0.0221,-0.004 -0.69863,-0.72498 -1.50338,-1.60117 z"
         id="book-leaf-3"
         class="corp-book-leaf-3"
         inkscape:connector-curvature="0"
         style="fill:#189fda" />
      <path
         d="m 50.045463,103.06549 c -1.04284,-3.611426 -3.27178,-9.918496 -4.63438,-13.113556 -5.56445,-13.04773 -12.51218,-21.44609 -21.84483,-26.40587 l -1.28659,-0.68375 -0.0408,-24.34215 c -0.0224,-13.38818 0.0137,-24.34194 0.0804,-24.34168 0.84499,0.003 5.45431,1.85193 8.10874,3.25226 3.95842,2.08826 8.72423,5.6668 11.35156,8.52364 l 0.6835,0.74321 0,5.76756 0,5.76757 -1.24639,-1.37971 c -1.43697,-1.59067 -2.2181,-2.30723 -3.89998,-3.5776 -2.25804,-1.70556 -5.00782,-3.36019 -5.58419,-3.36019 l -0.3663,0 0,6.10211 0,6.10211 1.88496,1.04731 c 3.20209,1.77913 5.93975,4.01623 8.23165,6.72654 0.49491,0.58527 0.9903,1.06451 1.10086,1.065 0.15678,7.5e-4 0.20104,-1.32901 0.20104,-6.04091 l 0,-6.04178 0.76391,0.44102 c 1.86915,1.07909 4.44404,3.67096 6.17579,6.21653 l 1.1015,1.61914 0,29.16906 c 0,16.04299 -0.0181,29.168926 -0.0402,29.168766 -0.0221,-1.6e-4 -0.35523,-1.09124 -0.74026,-2.42463 z m -2.71573,0.002 c -4.35938,-8.098446 -10.29996,-15.126886 -16.48377,-19.502296 -4.72239,-3.34137 -9.53737,-5.58489 -15.72297,-7.32604 -1.81328,-0.51041 -3.71302,-1.01932 -4.22162,-1.13091 l -0.9247401,-0.20288 0,-27.52714 c 0,-15.13993 0.028,-27.52714 0.0621,-27.52714 0.0341,0 0.63122,0.21646 1.3268,0.48102 2.53016,0.96234 4.82054,2.53115 5.85314,4.00916 1.12128,1.60493 1.03633,-0.13772 1.07841,22.12335 0.0209,11.06454 0.0933,20.17155 0.16082,20.23779 0.0675,0.0662 0.59321,0.31156 1.16816,0.54514 2.79543,1.13568 6.83102,3.7297 10.04218,6.45497 1.59196,1.35107 5.60413,5.67582 7.22215,7.78481 2.59034,3.37635 5.57942,8.55628 7.72667,13.38998 1.41876,3.19379 3.75539,9.440296 3.59822,9.619126 -0.0397,0.0452 -0.43819,-0.59785 -0.88556,-1.42892 z m -3.28887,-0.59199 C 34.713623,92.139514 22.879633,86.872324 3.2732729,84.330264 c -2.20999,-0.28653 -2.44999,-0.35241 -2.53079,-0.69471 -0.1169,-0.4953 -0.12094,-51.79801 -0.004,-51.93097 0.11786,-0.13412 1.64321,0.32375 2.54693,0.76453 0.94586,0.46132 2.00744,1.5713 2.37065,2.47871 0.27803,0.69461 0.29316,1.82592 0.29651,22.16927 l 0.003,21.4373 1.16597,0.28285 c 0.64129,0.15557 2.72195,0.62051 4.6236901,1.03319 3.66938,0.79627 6.84568,1.68963 9.23689,2.59796 9.20042,3.4949 16.43556,9.40109 22.6584,18.496526 1.19158,1.74163 2.26339,3.43412 2.16692,3.42177 -0.0263,-0.003 -0.82153,-0.86341 -1.76704,-1.91118 z"
         id="book"
         inkscape:connector-curvature="0" />
      <rect
         width="3"
         height="58.57143"
         x="122.85714"
         y="42.362206"
         id="rect4535" />
    </g>
    <g
       id="national">
      <path
         d="m 70.82799,32.827408 2.94,0 0,-9.56 0.04,0 5.94,9.56 3.14,0 0,-14.28 -2.94,0 0,9.58 -0.04,0 -5.96,-9.58 -3.12,0 0,14.28 z"
         id="path3371"
         inkscape:connector-curvature="0" />
      <path
         d="m 91.772678,28.827408 q 0,0.34 -0.06,0.72 -0.06,0.36 -0.28,0.76 -0.22,0.38 -0.7,0.64 -0.48,0.26 -1.26,0.26 -0.8,0 -1.28,-0.28 -0.46,-0.3 -0.46,-1.04 0,-0.7 0.44,-1.02 0.44,-0.34 1.24,-0.5 0.26,-0.04 0.68,-0.1 0.66,-0.1 1.04,-0.2 0.4,-0.1 0.64,-0.3 l 0,1.06 z m -3.72,-3.16 q 0.08,-0.82 0.56,-1.18 0.48,-0.38 1.32,-0.38 0.88,0 1.36,0.28 0.48,0.28 0.48,1.12 0,0.64 -0.58,0.86 -0.58,0.22 -1.86,0.38 -0.52,0.06 -0.92,0.12 -0.76,0.1 -1.36,0.28 -0.6,0.18 -1.1,0.52 -0.48,0.34 -0.78,0.92 -0.28,0.58 -0.28,1.42 0,1.52 0.98,2.32 0.98,0.78 2.54,0.78 1.02,0 1.92,-0.3 0.92,-0.32 1.56,-0.98 0.02,0.44 0.2,1 l 2.88,0 q -0.18,-0.3 -0.28,-0.9 -0.08,-0.62 -0.08,-1.4 l 0,-5.38 q 0,-0.88 -0.4,-1.46 -0.4,-0.6 -1.06,-0.92 -0.64,-0.32 -1.44,-0.44 -0.78,-0.12 -1.64,-0.12 -0.92,0 -1.76,0.18 -0.82,0.16 -1.52,0.58 -0.68,0.4 -1.1,1.08 -0.42,0.66 -0.48,1.62 l 2.84,0 z"
         id="path3373"
         inkscape:connector-curvature="0" />
      <path
         d="m 100.41705,19.387408 -2.839997,0 0,3.1 -1.72,0 0,1.9 1.72,0 0,6.1 q 0,0.74 0.24,1.24 0.26,0.48 0.7,0.76 0.46,0.26 1.02,0.36 0.579997,0.1 1.299997,0.1 1.06,0 1.66,-0.1 l 0,-2.22 q -0.4,0.08 -0.88,0.08 -0.72,0 -0.96,-0.24 -0.24,-0.24 -0.24,-0.96 l 0,-5.12 2.08,0 0,-1.9 -2.08,0 0,-3.1 z"
         id="path3375"
         inkscape:connector-curvature="0" />
      <path
         d="m 103.9283,32.827408 2.84,0 0,-10.34 -2.84,0 0,10.34 z m 2.84,-14.28 -2.84,0 0,2.34 2.84,0 0,-2.34 z"
         id="path3377"
         inkscape:connector-curvature="0" />
      <path
         d="m 108.68455,27.667408 q 0,2.46 1.46,3.96 1.46,1.48 3.88,1.48 2.44,0 3.9,-1.48 1.46,-1.5 1.46,-3.96 0,-2.48 -1.46,-3.96 -1.46,-1.5 -3.9,-1.5 -2.42,0 -3.88,1.5 -1.46,1.48 -1.46,3.96 z m 2.84,0 q 0,-0.66 0.12,-1.24 0.14,-0.6 0.42,-1.06 0.3,-0.48 0.78,-0.74 0.5,-0.28 1.18,-0.28 0.7,0 1.18,0.28 0.5,0.26 0.78,0.74 0.3,0.46 0.42,1.06 0.14,0.58 0.14,1.24 0,0.66 -0.14,1.24 -0.12,0.58 -0.42,1.06 -0.28,0.46 -0.78,0.74 -0.48,0.26 -1.18,0.26 -0.68,0 -1.18,-0.26 -0.48,-0.28 -0.78,-0.74 -0.28,-0.48 -0.42,-1.06 -0.12,-0.58 -0.12,-1.24 z"
         id="path3379"
         inkscape:connector-curvature="0" />
      <path
         d="m 121.23112,32.827408 2.84,0 0,-5.42 q 0,-1.58 0.52,-2.26 0.52,-0.7 1.68,-0.7 0.98,0 1.4,0.62 0.42,0.62 0.42,1.92 l 0,5.84 2.84,0 0,-6.36 q 0,-1.02 -0.18,-1.78 -0.16,-0.78 -0.6,-1.32 -0.42,-0.56 -1.16,-0.86 -0.74,-0.3 -1.84,-0.3 -0.94,0 -1.8,0.44 -0.84,0.44 -1.36,1.28 l -0.06,0 0,-1.44 -2.7,0 0,10.34 z"
         id="path3381"
         inkscape:connector-curvature="0" />
      <path
         d="m 139.54612,28.827408 q 0,0.34 -0.06,0.72 -0.06,0.36 -0.28,0.76 -0.22,0.38 -0.7,0.64 -0.48,0.26 -1.26,0.26 -0.8,0 -1.28,-0.28 -0.46,-0.3 -0.46,-1.04 0,-0.7 0.44,-1.02 0.44,-0.34 1.24,-0.5 0.26,-0.04 0.68,-0.1 0.66,-0.1 1.04,-0.2 0.4,-0.1 0.64,-0.3 l 0,1.06 z m -3.72,-3.16 q 0.08,-0.82 0.56,-1.18 0.48,-0.38 1.32,-0.38 0.88,0 1.36,0.28 0.48,0.28 0.48,1.12 0,0.64 -0.58,0.86 -0.58,0.22 -1.86,0.38 -0.52,0.06 -0.92,0.12 -0.76,0.1 -1.36,0.28 -0.6,0.18 -1.1,0.52 -0.48,0.34 -0.78,0.92 -0.28,0.58 -0.28,1.42 0,1.52 0.98,2.32 0.98,0.78 2.54,0.78 1.02,0 1.92,-0.3 0.92,-0.32 1.56,-0.98 0.02,0.44 0.2,1 l 2.88,0 q -0.18,-0.3 -0.28,-0.9 -0.08,-0.62 -0.08,-1.4 l 0,-5.38 q 0,-0.88 -0.4,-1.46 -0.4,-0.6 -1.06,-0.92 -0.64,-0.32 -1.44,-0.44 -0.78,-0.12 -1.64,-0.12 -0.92,0 -1.76,0.18 -0.82,0.16 -1.52,0.58 -0.68,0.4 -1.1,1.08 -0.42,0.66 -0.48,1.62 l 2.84,0 z"
         id="path3383"
         inkscape:connector-curvature="0" />
      <path
         d="m 144.67049,32.827408 2.84,0 0,-14.28 -2.84,0 0,14.28 z"
         id="path3385"
         inkscape:connector-curvature="0" />
    </g>
    <g
       id="library">
      <path
         d="m 155.59362,32.827408 10.1,0 0,-2.64 -6.96,0 0,-11.64 -3.14,0 0,14.28 z"
         id="path3388"
         inkscape:connector-curvature="0" />
      <path
         d="m 167.24862,32.827408 2.84,0 0,-10.34 -2.84,0 0,10.34 z m 2.84,-14.28 -2.84,0 0,2.34 2.84,0 0,-2.34 z"
         id="path3390"
         inkscape:connector-curvature="0" />
      <path
         d="m 172.32487,32.827408 2.7,0 0,-1.32 0.04,0 q 0.44,0.82 1.32,1.22 0.88,0.38 2.08,0.38 0.8,0 1.56,-0.32 0.76,-0.34 1.38,-1 0.62,-0.68 0.98,-1.72 0.36,-1.06 0.36,-2.42 0,-1.36 -0.36,-2.4 -0.36,-1.04 -0.98,-1.7 -0.62,-0.68 -1.38,-1 -0.76,-0.34 -1.56,-0.34 -1,0 -1.88,0.4 -0.88,0.38 -1.38,1.14 l -0.04,0 0,-5.2 -2.84,0 0,14.28 z m 7.58,-5.16 q 0,1.4 -0.62,2.36 -0.62,0.94 -1.8,0.94 -1.18,0 -1.8,-0.94 -0.62,-0.96 -0.62,-2.36 0,-1.42 0.62,-2.36 0.62,-0.96 1.8,-0.96 1.18,0 1.8,0.96 0.62,0.94 0.62,2.36 z"
         id="path3392"
         inkscape:connector-curvature="0" />
      <path
         d="m 184.55143,32.827408 2.84,0 0,-4.66 q 0,-1.5 0.66,-2.4 0.68,-0.92 2.14,-0.92 0.26,0 0.54,0.04 0.3,0.02 0.48,0.06 l 0,-2.64 q -0.3,-0.1 -0.62,-0.1 -1.04,0 -1.98,0.62 -0.94,0.62 -1.32,1.58 l -0.04,0 0,-1.92 -2.7,0 0,10.34 z"
         id="path3394"
         inkscape:connector-curvature="0" />
      <path
         d="m 198.76487,28.827408 q 0,0.34 -0.06,0.72 -0.06,0.36 -0.28,0.76 -0.22,0.38 -0.7,0.64 -0.48,0.26 -1.26,0.26 -0.8,0 -1.28,-0.28 -0.46,-0.3 -0.46,-1.04 0,-0.7 0.44,-1.02 0.44,-0.34 1.24,-0.5 0.26,-0.04 0.68,-0.1 0.66,-0.1 1.04,-0.2 0.4,-0.1 0.64,-0.3 l 0,1.06 z m -3.72,-3.16 q 0.08,-0.82 0.56,-1.18 0.48,-0.38 1.32,-0.38 0.88,0 1.36,0.28 0.48,0.28 0.48,1.12 0,0.64 -0.58,0.86 -0.58,0.22 -1.86,0.38 -0.52,0.06 -0.92,0.12 -0.76,0.1 -1.36,0.28 -0.6,0.18 -1.1,0.52 -0.48,0.34 -0.78,0.92 -0.28,0.58 -0.28,1.42 0,1.52 0.98,2.32 0.98,0.78 2.54,0.78 1.02,0 1.92,-0.3 0.92,-0.32 1.56,-0.98 0.02,0.44 0.2,1 l 2.88,0 q -0.18,-0.3 -0.28,-0.9 -0.08,-0.62 -0.08,-1.4 l 0,-5.38 q 0,-0.88 -0.4,-1.46 -0.4,-0.6 -1.06,-0.92 -0.64,-0.32 -1.44,-0.44 -0.78,-0.12 -1.64,-0.12 -0.92,0 -1.76,0.18 -0.82,0.16 -1.52,0.58 -0.68,0.4 -1.1,1.08 -0.42,0.66 -0.48,1.62 l 2.84,0 z"
         id="path3396"
         inkscape:connector-curvature="0" />
      <path
         d="m 203.80924,32.827408 2.84,0 0,-4.66 q 0,-1.5 0.66,-2.4 0.68,-0.92 2.14,-0.92 0.26,0 0.54,0.04 0.3,0.02 0.48,0.06 l 0,-2.64 q -0.3,-0.1 -0.62,-0.1 -1.04,0 -1.98,0.62 -0.94,0.62 -1.32,1.58 l -0.04,0 0,-1.92 -2.7,0 0,10.34 z"
         id="path3398"
         inkscape:connector-curvature="0" />
      <path
         d="m 221.00268,22.487408 -2.94,0 -2.26,7.08 -0.04,0 -2.34,-7.08 -3.04,0 3.64,9.7 q 0.12,0.3 0.12,0.64 0,0.5 -0.3,0.86 -0.28,0.38 -0.8,0.44 -0.52,0 -1.3,-0.06 -0.18,-0.02 -0.36,-0.04 l 0,2.34 q 0.96,0.1 1.74,0.1 1.46,0 2.28,-0.54 0.82,-0.54 1.28,-1.8 l 4.32,-11.64 z"
         id="path3400"
         inkscape:connector-curvature="0" />
    </g>
    <g
       id="board">
      <path
         d="m 230.96018,26.467408 3.42,0 q 1.06,0 1.66,0.5 0.6,0.48 0.6,1.54 0,1.02 -0.64,1.46 -0.62,0.42 -1.68,0.42 l -3.36,0 0,-3.92 z m -3.14,6.36 6.92,0 q 1,0 1.9,-0.24 0.9,-0.26 1.6,-0.76 0.72,-0.52 1.12,-1.3 0.42,-0.8 0.42,-1.84 0,-1.36 -0.68,-2.3 -0.66,-0.96 -1.94,-1.32 1.94,-0.94 1.94,-2.98 0,-1.9 -1.2,-2.72 -1.18,-0.82 -3.36,-0.82 l -6.72,0 0,14.28 z m 3.14,-11.84 2.94,0 q 0.98,0 1.56,0.36 0.6,0.34 0.6,1.28 0,0.86 -0.52,1.28 -0.52,0.42 -1.4,0.42 l -3.18,0 0,-3.34 z"
         id="path3403"
         inkscape:connector-curvature="0" />
      <path
         d="m 241.26268,27.667408 q 0,2.46 1.46,3.96 1.46,1.48 3.88,1.48 2.44,0 3.9,-1.48 1.46,-1.5 1.46,-3.96 0,-2.48 -1.46,-3.96 -1.46,-1.5 -3.9,-1.5 -2.42,0 -3.88,1.5 -1.46,1.48 -1.46,3.96 z m 2.84,0 q 0,-0.66 0.12,-1.24 0.14,-0.6 0.42,-1.06 0.3,-0.48 0.78,-0.74 0.5,-0.28 1.18,-0.28 0.7,0 1.18,0.28 0.5,0.26 0.78,0.74 0.3,0.46 0.42,1.06 0.14,0.58 0.14,1.24 0,0.66 -0.14,1.24 -0.12,0.58 -0.42,1.06 -0.28,0.46 -0.78,0.74 -0.48,0.26 -1.18,0.26 -0.68,0 -1.18,-0.26 -0.48,-0.28 -0.78,-0.74 -0.28,-0.48 -0.42,-1.06 -0.12,-0.58 -0.12,-1.24 z"
         id="path3405"
         inkscape:connector-curvature="0" />
      <path
         d="m 260.24924,28.827408 q 0,0.34 -0.06,0.72 -0.06,0.36 -0.28,0.76 -0.22,0.38 -0.7,0.64 -0.48,0.26 -1.26,0.26 -0.8,0 -1.28,-0.28 -0.46,-0.3 -0.46,-1.04 0,-0.7 0.44,-1.02 0.44,-0.34 1.24,-0.5 0.26,-0.04 0.68,-0.1 0.66,-0.1 1.04,-0.2 0.4,-0.1 0.64,-0.3 l 0,1.06 z m -3.72,-3.16 q 0.08,-0.82 0.56,-1.18 0.48,-0.38 1.32,-0.38 0.88,0 1.36,0.28 0.48,0.28 0.48,1.12 0,0.64 -0.58,0.86 -0.58,0.22 -1.86,0.38 -0.52,0.06 -0.92,0.12 -0.76,0.1 -1.36,0.28 -0.6,0.18 -1.1,0.52 -0.48,0.34 -0.78,0.92 -0.28,0.58 -0.28,1.42 0,1.52 0.98,2.32 0.98,0.78 2.54,0.78 1.02,0 1.92,-0.3 0.92,-0.32 1.56,-0.98 0.02,0.44 0.2,1 l 2.88,0 q -0.18,-0.3 -0.28,-0.9 -0.08,-0.62 -0.08,-1.4 l 0,-5.38 q 0,-0.88 -0.4,-1.46 -0.4,-0.6 -1.06,-0.92 -0.64,-0.32 -1.44,-0.44 -0.78,-0.12 -1.64,-0.12 -0.92,0 -1.76,0.18 -0.82,0.16 -1.52,0.58 -0.68,0.4 -1.1,1.08 -0.42,0.66 -0.48,1.62 l 2.84,0 z"
         id="path3407"
         inkscape:connector-curvature="0" />
      <path
         d="m 265.29362,32.827408 2.84,0 0,-4.66 q 0,-1.5 0.66,-2.4 0.68,-0.92 2.14,-0.92 0.26,0 0.54,0.04 0.3,0.02 0.48,0.06 l 0,-2.64 q -0.3,-0.1 -0.62,-0.1 -1.04,0 -1.98,0.62 -0.94,0.62 -1.32,1.58 l -0.04,0 0,-1.92 -2.7,0 0,10.34 z"
         id="path3409"
         inkscape:connector-curvature="0" />
      <path
         d="m 280.11502,32.827408 2.7,0 0,-14.28 -2.84,0 0,5.2 -0.04,0 q -0.46,-0.74 -1.3,-1.14 -0.82,-0.4 -1.76,-0.4 -1.1,0 -1.98,0.44 -0.86,0.42 -1.44,1.18 -0.58,0.76 -0.88,1.72 -0.28,0.96 -0.28,2.02 0,1.1 0.28,2.1 0.3,0.98 0.88,1.76 0.6,0.78 1.48,1.24 0.88,0.44 2,0.44 1.04,0 1.84,-0.38 0.82,-0.4 1.3,-1.22 l 0.04,0 0,1.32 z m -0.04,-5.2 q 0,0.68 -0.12,1.28 -0.12,0.58 -0.42,1.06 -0.28,0.46 -0.76,0.74 -0.46,0.26 -1.14,0.26 -0.64,0 -1.12,-0.28 -0.46,-0.28 -0.78,-0.76 -0.3,-0.48 -0.46,-1.06 -0.14,-0.6 -0.14,-1.22 0,-0.66 0.12,-1.24 0.14,-0.6 0.44,-1.06 0.3,-0.48 0.78,-0.74 0.48,-0.26 1.16,-0.26 0.66,0 1.14,0.26 0.48,0.26 0.76,0.72 0.28,0.46 0.4,1.04 0.14,0.58 0.14,1.26 z"
         id="path3411"
         inkscape:connector-curvature="0" />
    </g>
    <g
       id="singapore">
      <path
         d="m 70.505605,44.512117 q 0,0.8 0.3,1.4125 0.3125,0.6 0.8375,1 0.5375,0.3875 1.2125,0.575 0.6875,0.1875 1.45,0.1875 1.7625,0 2.7375,-0.7875 0.975,-0.8 0.975,-2.075 0,-0.675 -0.275,-1.15 -0.275,-0.4875 -0.6875,-0.7625 -0.4125,-0.2875 -0.7875,-0.425 -0.375,-0.1375 -0.825,-0.25 -0.0375,0 -0.075,-0.0125 -0.1625,-0.05 -0.2,-0.05 -0.9375,-0.2375 -1.35,-0.3625 -0.4125,-0.125 -0.6625,-0.2375 -0.25,-0.125 -0.35,-0.275 -0.1,-0.1625 -0.1,-0.425 0,-0.5125 0.4,-0.7625 0.4,-0.25 0.95,-0.25 0.7875,0 1.25,0.3 0.475,0.3 0.5125,1.05 l 1.9,0 q 0,-0.75 -0.2875,-1.3 -0.2875,-0.55 -0.7875,-0.9 -0.4875,-0.35 -1.1375,-0.5125 -0.6375,-0.1625 -1.3625,-0.1625 -0.625,0 -1.225,0.175 -0.5875,0.1625 -1.075,0.5 -0.475,0.3375 -0.7625,0.85 -0.275,0.5125 -0.275,1.175 0,0.6 0.2125,1.0375 0.225,0.425 0.5875,0.7125 0.375,0.275 0.825,0.45 0.45,0.175 1.0375,0.3375 0.2125,0.05 0.575,0.15 0.55,0.125 0.875,0.225 0.325,0.1 0.6,0.25 0.275,0.1375 0.4375,0.35 0.1625,0.2 0.1625,0.5 0,0.325 -0.1625,0.55 -0.1625,0.2125 -0.4375,0.3375 -0.2625,0.125 -0.5625,0.175 -0.2875,0.05 -0.575,0.05 -0.8625,0 -1.425,-0.4 -0.55,-0.4125 -0.55,-1.25 l -1.9,0 z"
         id="path3414"
         inkscape:connector-curvature="0" />
      <path
         d="m 79.036073,47.474617 1.775,0 0,-6.4625 -1.775,0 0,6.4625 z m 1.775,-8.925 -1.775,0 0,1.4625 1.775,0 0,-1.4625 z"
         id="path3416"
         inkscape:connector-curvature="0" />
      <path
         d="m 82.20873,47.474617 1.775,0 0,-3.3875 q 0,-0.9875 0.325,-1.4125 0.325,-0.4375 1.05,-0.4375 0.6125,0 0.875,0.3875 0.2625,0.3875 0.2625,1.2 l 0,3.65 1.775,0 0,-3.975 q 0,-0.6375 -0.1125,-1.1125 -0.1,-0.4875 -0.375,-0.825 -0.2625,-0.35 -0.725,-0.5375 -0.4625,-0.1875 -1.15,-0.1875 -0.5875,0 -1.125,0.275 -0.525,0.275 -0.85,0.8 l -0.0375,0 0,-0.9 -1.6875,0 0,6.4625 z"
         id="path3418"
         inkscape:connector-curvature="0" />
      <path
         d="m 95.843105,41.012117 -1.6875,0 0,0.8625 -0.025,0 q -0.3125,-0.55 -0.7875,-0.7875 -0.475,-0.25 -1.1375,-0.25 -0.6625,0 -1.1875,0.2625 -0.5125,0.25 -0.875,0.7 -0.35,0.45 -0.5375,1.025 -0.175,0.575 -0.175,1.2125 0,0.6875 0.1625,1.275 0.1625,0.5875 0.5,1.0375 0.3375,0.4375 0.8625,0.6875 0.5375,0.25 1.2375,0.25 0.6,0 1.125,-0.25 0.5375,-0.2625 0.8125,-0.75 l 0.025,0 0,0.85 q 0,0.7375 -0.3625,1.1625 -0.35,0.4375 -1.0625,0.4375 -0.5125,0 -0.8625,-0.2125 -0.35,-0.2 -0.4625,-0.675 l -1.7625,0 q 0.025,0.525 0.2875,0.925 0.2625,0.4 0.6625,0.65 0.4125,0.25 0.9,0.375 0.5,0.125 1,0.125 1.05,0 1.725,-0.275 0.6875,-0.275 1.0375,-0.7125 0.35,-0.4375 0.4625,-0.9125 0.125,-0.475 0.125,-0.9625 l 0,-6.05 z m -3.2,4.9375 q -0.3875,0 -0.675,-0.1625 -0.275,-0.175 -0.45,-0.45 -0.1625,-0.275 -0.2375,-0.6125 -0.075,-0.3375 -0.075,-0.7125 0,-0.7875 0.3625,-1.3125 0.3625,-0.525 1.075,-0.525 0.4125,0 0.7,0.1625 0.3,0.15 0.475,0.425 0.175,0.275 0.25,0.6375 0.0875,0.35 0.0875,0.7625 0,0.7375 -0.4,1.2625 -0.3875,0.525 -1.1125,0.525 z"
         id="path3420"
         inkscape:connector-curvature="0" />
      <path
         d="m 101.29721,44.974617 q 0,0.2125 -0.0375,0.45 -0.0375,0.225 -0.175,0.475 -0.1375,0.2375 -0.4375,0.4 -0.3,0.1625 -0.787504,0.1625 -0.5,0 -0.8,-0.175 -0.2875,-0.1875 -0.2875,-0.65 0,-0.4375 0.275,-0.6375 0.275,-0.2125 0.775,-0.3125 0.1625,-0.025 0.425004,-0.0625 0.4125,-0.0625 0.65,-0.125 0.25,-0.0625 0.4,-0.1875 l 0,0.6625 z m -2.325004,-1.975 q 0.05,-0.5125 0.35,-0.7375 0.3,-0.2375 0.825004,-0.2375 0.55,0 0.85,0.175 0.3,0.175 0.3,0.7 0,0.4 -0.3625,0.5375 -0.3625,0.1375 -1.162504,0.2375 -0.325,0.0375 -0.575,0.075 -0.475,0.0625 -0.85,0.175 -0.375,0.1125 -0.6875,0.325 -0.3,0.2125 -0.4875,0.575 -0.175,0.3625 -0.175,0.8875 0,0.95 0.6125,1.45 0.6125,0.4875 1.5875,0.4875 0.6375,0 1.200004,-0.1875 0.575,-0.2 0.975,-0.6125 0.0125,0.275 0.125,0.625 l 1.8,0 q -0.1125,-0.1875 -0.175,-0.5625 -0.05,-0.3875 -0.05,-0.875 l 0,-3.3625 q 0,-0.55 -0.25,-0.9125 -0.25,-0.375 -0.6625,-0.575 -0.4,-0.2 -0.9,-0.275 -0.4875,-0.075 -1.025,-0.075 -0.575004,0 -1.100004,0.1125 -0.5125,0.1 -0.95,0.3625 -0.425,0.25 -0.6875,0.675 -0.2625,0.4125 -0.3,1.0125 l 1.775,0 z"
         id="path3422"
         inkscape:connector-curvature="0" />
      <path
         d="m 104.44994,49.749617 1.775,0 0,-3.075 0.025,0 q 0.3125,0.475 0.825,0.725 0.525,0.25 1.1125,0.25 0.6875,0 1.2125,-0.2625 0.5375,-0.275 0.9,-0.7375 0.3625,-0.475 0.5375,-1.075 0.1875,-0.6 0.1875,-1.2625 0,-0.7 -0.1875,-1.325 -0.175,-0.6375 -0.5375,-1.1125 -0.3625,-0.4875 -0.925,-0.7625 -0.55,-0.275 -1.2875,-0.275 -0.6125,0 -1.1125,0.25 -0.5,0.25 -0.8125,0.75 l -0.025,0 0,-0.825 -1.6875,0 0,8.7375 z m 3.2625,-3.4375 q -0.4125,0 -0.7125,-0.1625 -0.3,-0.175 -0.4875,-0.4625 -0.1875,-0.2875 -0.275,-0.65 -0.075,-0.3625 -0.075,-0.775 0,-0.425 0.075,-0.7875 0.0875,-0.375 0.2625,-0.6625 0.1875,-0.3 0.4875,-0.4625 0.3,-0.175 0.7125,-0.175 0.4125,0 0.7125,0.175 0.3,0.175 0.475,0.475 0.1875,0.3 0.275,0.675 0.0875,0.3625 0.0875,0.7625 0,0.425 -0.0875,0.7875 -0.075,0.3625 -0.2625,0.65 -0.175,0.275 -0.475,0.45 -0.2875,0.1625 -0.7125,0.1625 z"
         id="path3424"
         inkscape:connector-curvature="0" />
      <path
         d="m 111.89154,44.249617 q 0,1.5375 0.9125,2.475 0.9125,0.925 2.425,0.925 1.525,0 2.4375,-0.925 0.9125,-0.9375 0.9125,-2.475 0,-1.55 -0.9125,-2.475 -0.9125,-0.9375 -2.4375,-0.9375 -1.5125,0 -2.425,0.9375 -0.9125,0.925 -0.9125,2.475 z m 1.775,0 q 0,-0.4125 0.075,-0.775 0.0875,-0.375 0.2625,-0.6625 0.1875,-0.3 0.4875,-0.4625 0.3125,-0.175 0.7375,-0.175 0.4375,0 0.7375,0.175 0.3125,0.1625 0.4875,0.4625 0.1875,0.2875 0.2625,0.6625 0.0875,0.3625 0.0875,0.775 0,0.4125 -0.0875,0.775 -0.075,0.3625 -0.2625,0.6625 -0.175,0.2875 -0.4875,0.4625 -0.3,0.1625 -0.7375,0.1625 -0.425,0 -0.7375,-0.1625 -0.3,-0.175 -0.4875,-0.4625 -0.175,-0.3 -0.2625,-0.6625 -0.075,-0.3625 -0.075,-0.775 z"
         id="path3426"
         inkscape:connector-curvature="0" />
      <path
         d="m 119.73314,47.474617 1.775,0 0,-2.9125 q 0,-0.9375 0.4125,-1.5 0.425,-0.575 1.3375,-0.575 0.1625,0 0.3375,0.025 0.1875,0.0125 0.3,0.0375 l 0,-1.65 q -0.1875,-0.0625 -0.3875,-0.0625 -0.65,0 -1.2375,0.3875 -0.5875,0.3875 -0.825,0.9875 l -0.025,0 0,-1.2 -1.6875,0 0,6.4625 z"
         id="path3428"
         inkscape:connector-curvature="0" />
      <path
         d="m 130.50902,44.674617 q 0,-0.05 0,-0.1625 0.0125,-0.1 0.0125,-0.15 0,-0.7125 -0.2125,-1.35 -0.2,-0.6375 -0.6,-1.125 -0.3875,-0.4875 -0.9875,-0.7625 -0.5875,-0.2875 -1.35,-0.2875 -0.725,0 -1.3375,0.2625 -0.6125,0.25 -1.05,0.7125 -0.4375,0.4625 -0.675,1.0875 -0.2375,0.625 -0.2375,1.35 0,0.7375 0.225,1.375 0.2375,0.625 0.6625,1.0875 0.4375,0.45 1.05,0.7 0.6125,0.2375 1.3625,0.2375 1.125,0 1.8875,-0.525 0.775,-0.5375 1.1375,-1.65 l -1.5625,0 q -0.0875,0.325 -0.4875,0.5875 -0.4,0.25 -0.9125,0.25 -0.75,0 -1.15,-0.4 -0.4,-0.4 -0.4375,-1.2375 l 4.6625,0 z m -4.6625,-1.125 q 0.0125,-0.2125 0.0875,-0.4375 0.075,-0.2375 0.25,-0.45 0.175,-0.2125 0.45,-0.35 0.2875,-0.1375 0.6875,-0.1375 0.625,0 0.95,0.3375 0.3375,0.3375 0.4625,1.0375 l -2.8875,0 z"
         id="path3430"
         inkscape:connector-curvature="0" />
    </g>
    <g
       id="nlb">
      <path
         d="m 35.373975,40.151012 1.65375,0 0,-5.3775 0.0225,0 3.34125,5.3775 1.76625,0 0,-8.0325 -1.65375,0 0,5.38875 -0.0225,0 -3.3525,-5.38875 -1.755,0 0,8.0325 z"
         id="path3433"
         inkscape:connector-curvature="0" />
      <path
         d="m 43.701612,40.151012 5.68125,0 0,-1.485 -3.915,0 0,-6.5475 -1.76625,0 0,8.0325 z"
         id="path3435"
         inkscape:connector-curvature="0" />
      <path
         d="m 52.147549,36.573512 1.92375,0 q 0.59625,0 0.93375,0.28125 0.3375,0.27 0.3375,0.86625 0,0.57375 -0.36,0.82125 -0.34875,0.23625 -0.945,0.23625 l -1.89,0 0,-2.205 z m -1.76625,3.5775 3.8925,0 q 0.5625,0 1.06875,-0.135 0.50625,-0.14625 0.9,-0.4275 0.405,-0.2925 0.63,-0.73125 0.23625,-0.45 0.23625,-1.035 0,-0.765 -0.3825,-1.29375 -0.37125,-0.54 -1.09125,-0.7425 1.09125,-0.52875 1.09125,-1.67625 0,-1.06875 -0.675,-1.53 -0.66375,-0.46125 -1.89,-0.46125 l -3.78,0 0,8.0325 z m 1.76625,-6.66 1.65375,0 q 0.55125,0 0.8775,0.2025 0.3375,0.19125 0.3375,0.72 0,0.48375 -0.2925,0.72 -0.2925,0.23625 -0.7875,0.23625 l -1.78875,0 0,-1.87875 z"
         id="path3437"
         inkscape:connector-curvature="0" />
    </g>
  </g>
</svg>
